<svg width="24" height="24" fill="none" xmlns="http://www.w3.org/2000/svg"><g clip-path="url(#clip0_9_32)"><path d="M24.6 15.75a.693.693 0 00-.264-.53.998.998 0 00-.636-.22h-5.4a.998.998 0 00-.636.22.693.693 0 00-.264.53c0 .199.095.39.264.53.168.141.397.22.636.22h5.4a.998.998 0 00.636-.22.693.693 0 00.264-.53zm0-4.5a.693.693 0 00-.264-.53.998.998 0 00-.636-.22H11.1a.998.998 0 00-.636.22.693.693 0 00-.264.53c0 .199.095.39.264.53.168.141.397.22.636.22h12.6a.998.998 0 00.636-.22.693.693 0 00.264-.53zm0-4.5a.693.693 0 00-.264-.53A.999.999 0 0023.7 6H3.9a.999.999 0 00-.636.22.693.693 0 00-.264.53c0 .199.095.39.264.53.168.141.397.22.636.22h19.8a.999.999 0 00.636-.22.693.693 0 00.264-.53z" fill="#1E1E1E"/></g><defs><clipPath id="clip0_9_32"><path fill="#fff" d="M0 0h24v24H0z"/></clipPath></defs></svg>