<svg width="20" height="20" fill="none" xmlns="http://www.w3.org/2000/svg"><path d="M10 1.667c2.264 0 2.546.008 3.435.05.887.041 1.492.18 2.023.387.55.212 1.013.498 1.477.96.424.417.752.921.96 1.478.207.53.346 1.135.388 2.023.04.888.05 1.17.05 3.435 0 2.264-.008 2.546-.05 3.435-.042.887-.181 1.492-.387 2.023a4.068 4.068 0 01-.961 1.477c-.417.423-.92.751-1.477.96-.53.207-1.136.346-2.023.388-.889.04-1.171.05-3.435.05-2.264 0-2.547-.008-3.435-.05-.888-.042-1.492-.181-2.024-.387a4.074 4.074 0 01-1.476-.961 4.087 4.087 0 01-.961-1.477c-.207-.53-.346-1.136-.388-2.023-.039-.889-.05-1.171-.05-3.435 0-2.264.009-2.547.05-3.435.042-.889.181-1.492.388-2.024.209-.556.537-1.06.96-1.476a4.08 4.08 0 011.478-.961c.531-.207 1.135-.346 2.023-.388.888-.039 1.17-.05 3.435-.05zm0 4.166a4.167 4.167 0 100 8.334 4.167 4.167 0 000-8.334zm5.416-.208a1.041 1.041 0 10-2.082 0 1.041 1.041 0 002.082 0zM10 7.5a2.5 2.5 0 110 5 2.5 2.5 0 010-5z" fill="#1E1E1E" fill-opacity=".75"/></svg>