<svg width="20" height="17" fill="none" xmlns="http://www.w3.org/2000/svg"><path d="M6.282 16.25c7.548 0 11.677-6.253 11.677-11.667 0-.175 0-.352-.008-.527A8.357 8.357 0 0020 1.928c-.75.331-1.547.55-2.361.648A4.126 4.126 0 0019.448.305a8.166 8.166 0 01-2.61.99 4.107 4.107 0 00-6.994 3.743A11.656 11.656 0 011.385.752 4.111 4.111 0 002.658 6.23 4.154 4.154 0 01.8 5.72v.056a4.11 4.11 0 003.29 4.022 4.004 4.004 0 01-1.081.144c-.258 0-.515-.023-.768-.071a4.104 4.104 0 003.834 2.846 8.235 8.235 0 01-5.1 1.759A7.903 7.903 0 010 14.42a11.68 11.68 0 006.282 1.83z" fill="#1E1E1E" fill-opacity=".75"/></svg>