<svg width="40" height="40" fill="none" xmlns="http://www.w3.org/2000/svg"><path d="M9.135 3.32a1.695 1.695 0 00-2.538-.158L4.012 5.75C2.805 6.96 2.36 8.672 2.887 10.175a43.92 43.92 0 0010.42 16.52 43.921 43.921 0 0016.52 10.42c1.503.527 3.215.082 4.425-1.125l2.585-2.585a1.694 1.694 0 00-.157-2.538l-5.768-4.485a1.697 1.697 0 00-1.45-.305l-5.475 1.368a4.364 4.364 0 01-4.142-1.148l-6.14-6.142a4.362 4.362 0 01-1.15-4.143l1.37-5.475a1.697 1.697 0 00-.305-1.45L9.135 3.32zM4.71 1.277a4.363 4.363 0 016.53.408l4.485 5.765a4.361 4.361 0 01.787 3.735l-1.367 5.475a1.695 1.695 0 00.445 1.607l6.142 6.143a1.695 1.695 0 001.61.445l5.473-1.368a4.363 4.363 0 013.735.788l5.765 4.485a4.361 4.361 0 01.407 6.527l-2.585 2.585c-1.85 1.85-4.615 2.663-7.192 1.755a46.585 46.585 0 01-17.525-11.05A46.585 46.585 0 01.37 11.055C-.535 8.48.277 5.712 2.127 3.862l2.585-2.585H4.71zM27.5 1.25A1.25 1.25 0 0128.75 0h10A1.25 1.25 0 0140 1.25v10a1.25 1.25 0 01-2.5 0V4.267L27.135 14.635a1.252 1.252 0 01-1.77-1.77L35.732 2.5H28.75a1.25 1.25 0 01-1.25-1.25z" fill="#1E1E1E"/></svg>