<svg width="40" height="40" fill="none" xmlns="http://www.w3.org/2000/svg"><path d="M33.6 23.077H18.26l.47-.452 4.012-3.857a12.298 12.298 0 005.22 1.223 10.212 10.212 0 005.179-1.389c4.744-2.761 7.286-9.154 6.8-17.1a1.512 1.512 0 00-.466-.998 1.63 1.63 0 00-1.038-.448c-8.264-.465-14.912 1.977-17.784 6.539-1.873 2.97-1.92 6.56-.174 10L17.6 19.361l-2.442-2.348c1.2-2.548 1.114-5.192-.278-7.4-2.174-3.46-7.158-5.304-13.334-4.956a1.63 1.63 0 00-1.036.448c-.277.266-.443.62-.466.996C-.32 12.04 1.6 16.832 5.2 18.923A7.875 7.875 0 009.2 20a9.302 9.302 0 003.704-.805l2.432 2.344-1.6 1.538H4.8c-.424 0-.831.162-1.131.45-.3.29-.47.68-.47 1.089 0 .408.17.799.47 1.087.3.289.707.451 1.131.451h1.918L9.36 37.59a3.05 3.05 0 001.118 1.737 3.264 3.264 0 002.006.673H25.92a3.264 3.264 0 002.005-.673 3.045 3.045 0 001.119-1.737l2.642-11.436H33.6c.424 0 .831-.162 1.131-.45.3-.29.469-.68.469-1.088 0-.409-.169-.8-.469-1.088a1.63 1.63 0 00-1.131-.45zM23.4 8.19c2.093-3.32 7.049-5.192 13.401-5.11.082 6.118-1.862 10.88-5.314 12.885-2.302 1.346-5.08 1.257-7.856-.227-1.547-2.66-1.63-5.335-.23-7.548zm-11.378 7.986c-1.84.948-3.662.993-5.166.116-2.3-1.34-3.626-4.5-3.656-8.598 4.262.029 7.55 1.304 8.942 3.515.912 1.446.858 3.198-.12 4.967zM25.92 36.923H12.484L10 26.154h18.4l-2.481 10.77z" fill="#1E1E1E"/></svg>