<svg width="24" height="21" fill="none" xmlns="http://www.w3.org/2000/svg"><path fill-rule="evenodd" clip-rule="evenodd" d="M1.5 10.5c0-.166.079-.325.22-.442a.832.832 0 01.53-.183h17.69l-4.721-3.932a.578.578 0 01-.22-.443.58.58 0 01.22-.442.833.833 0 01.531-.184c.2 0 .39.066.531.184l6 5a.63.63 0 01.163.203.536.536 0 010 .479.633.633 0 01-.163.203l-6 5a.833.833 0 01-.531.183c-.2 0-.39-.066-.531-.183a.578.578 0 01-.22-.443.58.58 0 01.22-.442l4.72-3.933H2.25a.832.832 0 01-.53-.183.577.577 0 01-.22-.442z" fill="#1E1E1E"/></svg>