<svg width="141" height="22" fill="none" xmlns="http://www.w3.org/2000/svg"><path d="M13.16 11.944c.504.12.936.408 1.248.816.288.384.48.864.48 1.392v5.352c-1.08.432-2.424.936-3.888.936-.24 0-.48-.024-.72-.048-.048 0-6.696-.672-6.696-9.744 0-5.52 3-10.008 6.72-10.008 1.656 0 2.928.744 3.864 1.776a7.221 7.221 0 011.824 3.912c.024.264.048.528.048.792 0 .696-.12 1.44-.48 2.136 0 0 2.832-.216 2.832-3.6 0 0-.072-1.728-1.44-2.976C15.8 1.648 13.76.352 10.832.208c-.168 0-.336-.024-.504-.024C5.12.184.704 4.12.152 9.472a9.667 9.667 0 00-.072 1.176c0 5.76 4.584 10.44 10.224 10.44.984 0 1.968-.144 2.856-.408a7.698 7.698 0 012.328-.336 7.59 7.59 0 011.776.192l1.128.264v-6.648c0-1.032.696-1.968 1.728-2.208h-6.96zm21.453 8.04a2.197 2.197 0 01-.504-1.392V16.36c0-1.224-.48-2.328-1.296-3.12a4.223 4.223 0 00-1.896-1.128c-.168-.048-.336-.072-.504-.12 1.872-.576 4.752-1.992 4.752-5.616 0-1.656-.648-3.168-1.752-4.248A6.005 6.005 0 0029.165.376h-8.568c.504.12.936.408 1.248.816.312.384.48.888.48 1.392v16.008c0 1.032-.72 1.968-1.728 2.208h6.96a2.206 2.206 0 01-1.248-.816 2.323 2.323 0 01-.48-1.392v-2.016c0-1.128.432-2.16 1.128-2.952.36-.384.84-.6 1.344-.6.432 0 .888.168 1.224.504.552.576 1.08 1.464 1.08 2.832v1.728c0 1.488 1.224 2.712 2.736 2.712h2.496a2.074 2.074 0 01-1.224-.816zM25.83.808h1.08c3.072 0 4.752 2.496 4.752 5.568 0 1.536-.504 3.048-1.608 3.936-2.352 1.872-3.336 2.496-4.224 4.176V.808zm19.327 0c1.752 0 3.552 1.296 4.344 3L48.636.376H36.324c.504.12.936.408 1.248.816.312.384.48.888.48 1.392v16.008c0 1.056-.72 1.968-1.728 2.208h12.312l.864-3.432c-.792 1.728-2.592 3-4.344 3h-3.6v-4.464c0-.888.408-1.728 1.128-2.232a8.136 8.136 0 012.136-1.152c.216-.072.456-.12.672-.12.864 0 1.656.6 1.848 1.488V9.712c-.24 1.056-1.032 1.872-2.064 2.184-1.104.336-2.544.984-3.72 2.16V.808h3.6zm13.664 0c1.752 0 3.552 1.296 4.344 3L62.3.376H49.988c.504.12.936.408 1.248.816.312.384.48.888.48 1.392v16.008c0 1.056-.72 1.968-1.728 2.208H62.3l.864-3.432c-.792 1.728-2.592 3-4.344 3h-3.6v-4.464c0-.888.408-1.728 1.128-2.232a8.136 8.136 0 012.136-1.152c.216-.072.456-.12.672-.12.864 0 1.656.6 1.848 1.488V9.712c-.24 1.056-1.032 1.872-2.064 2.184-1.104.336-2.544.984-3.72 2.16V.808h3.6zm19.112 1.488a2.01 2.01 0 011.416-1.92H76.06a2.01 2.01 0 011.416 1.92V18.52L68.26.376h-4.608c.504.144.888.504 1.152.936l.072.144c.12.264.192.552.192.84V18.88a2.01 2.01 0 01-1.416 1.92h3.264a2.01 2.01 0 01-1.416-1.92V2.68l9.216 18.12h4.632a2.01 2.01 0 01-1.416-1.92V2.296zM93.744.376l-4.56 14.136L84.408.376h-4.584c.432.12.792.384 1.032.72.096.12.168.24.216.384l.144.384c.024.144.048.288.048.432V18.88c0 .888-.576 1.656-1.44 1.92h3.288c-.432-.12-.768-.384-1.032-.72a2.044 2.044 0 01-.384-1.2V3.352L87.48 20.8l6.264-18.984v16.776c0 1.056-.696 1.968-1.728 2.208h6.96a2.206 2.206 0 01-1.248-.816 2.323 2.323 0 01-.48-1.392V2.584c0-1.032.72-1.944 1.728-2.208h-5.232zm5.72 0a2.279 2.279 0 011.728 2.208v16.008c0 1.056-.696 1.968-1.728 2.208h6.96a2.264 2.264 0 01-1.728-2.208V2.584c0-1.032.72-1.944 1.728-2.208h-6.96zm21.71 1.92a2.01 2.01 0 011.416-1.92h-3.288a2.01 2.01 0 011.416 1.92V18.52L111.502.376h-4.608c.504.144.888.504 1.152.936l.072.144c.12.264.192.552.192.84V18.88a2.01 2.01 0 01-1.416 1.92h3.264a2.01 2.01 0 01-1.416-1.92V2.68l9.216 18.12h4.632a2.01 2.01 0 01-1.416-1.92V2.296zm12.14-1.488a9.982 9.982 0 00-2.952-.432h-7.296c.528.12.936.408 1.248.816.312.384.48.888.48 1.416v15.984c0 1.056-.696 1.968-1.728 2.208h7.296a9.982 9.982 0 002.952-.432c4.2-1.272 7.248-5.16 7.248-9.768 0-4.632-3.048-8.52-7.248-9.792zm-5.016 19.56V.808h2.064c3.696 0 6.696 4.392 6.696 9.792 0 5.4-3 9.768-6.696 9.768h-2.064z" fill="#1E1E1E"/></svg>